<?xml version="1.0" encoding="UTF-8"?>
<svg version="1.1" xmlns="http://www.w3.org/2000/svg" width="76" height="76">
<path d="M0 0 C7.92 0 15.84 0 24 0 C24 1.32 24 2.64 24 4 C25.32 4 26.64 4 28 4 C28 6.64 28 9.28 28 12 C26.68 12 25.36 12 24 12 C24 18.6 24 25.2 24 32 C25.32 32 26.64 32 28 32 C28 33.32 28 34.64 28 36 C29.32 36 30.64 36 32 36 C32 37.32 32 38.64 32 40 C33.32 40 34.64 40 36 40 C36 41.32 36 42.64 36 44 C37.32 44 38.64 44 40 44 C40 45.32 40 46.64 40 48 C41.32 48 42.64 48 44 48 C44 50.64 44 53.28 44 56 C42.68 56 41.36 56 40 56 C40 57.32 40 58.64 40 60 C21.52 60 3.04 60 -16 60 C-16 58.68 -16 57.36 -16 56 C-17.32 56 -18.64 56 -20 56 C-20 53.36 -20 50.72 -20 48 C-18.68 48 -17.36 48 -16 48 C-16 46.68 -16 45.36 -16 44 C-14.68 44 -13.36 44 -12 44 C-12 42.68 -12 41.36 -12 40 C-10.68 40 -9.36 40 -8 40 C-8 38.68 -8 37.36 -8 36 C-6.68 36 -5.36 36 -4 36 C-4 34.68 -4 33.36 -4 32 C-2.68 32 -1.36 32 0 32 C0 25.4 0 18.8 0 12 C-1.32 12 -2.64 12 -4 12 C-4 9.36 -4 6.72 -4 4 C-2.68 4 -1.36 4 0 4 C0 2.68 0 1.36 0 0 Z " fill="#393739" transform="translate(28,8)"/>
<path d="M0 0 C7.92 0 15.84 0 24 0 C24 2.64 24 5.28 24 8 C22.68 8 21.36 8 20 8 C20 14.6 20 21.2 20 28 C21.32 28 22.64 28 24 28 C24 29.32 24 30.64 24 32 C25.32 32 26.64 32 28 32 C28 33.32 28 34.64 28 36 C29.32 36 30.64 36 32 36 C32 37.32 32 38.64 32 40 C33.32 40 34.64 40 36 40 C36 41.32 36 42.64 36 44 C37.32 44 38.64 44 40 44 C40 46.64 40 49.28 40 52 C25.48 52 10.96 52 -4 52 C-4 50.68 -4 49.36 -4 48 C7.88 48 19.76 48 32 48 C32 46.68 32 45.36 32 44 C30.68 44 29.36 44 28 44 C28 42.68 28 41.36 28 40 C26.68 40 25.36 40 24 40 C24 38.68 24 37.36 24 36 C22.68 36 21.36 36 20 36 C20 37.32 20 38.64 20 40 C18.68 40 17.36 40 16 40 C16 38.68 16 37.36 16 36 C14.68 36 13.36 36 12 36 C12 34.68 12 33.36 12 32 C10.68 32 9.36 32 8 32 C8 22.76 8 13.52 8 4 C5.36 4 2.72 4 0 4 C0 2.68 0 1.36 0 0 Z " fill="#AE7081" transform="translate(32,12)"/>
<path d="M0 0 C1.32 0 2.64 0 4 0 C4 5.28 4 10.56 4 16 C5.32 16 6.64 16 8 16 C8 17.32 8 18.64 8 20 C9.32 20 10.64 20 12 20 C12 21.32 12 22.64 12 24 C13.32 24 14.64 24 16 24 C16 22.68 16 21.36 16 20 C17.32 20 18.64 20 20 20 C20 21.32 20 22.64 20 24 C21.32 24 22.64 24 24 24 C24 25.32 24 26.64 24 28 C25.32 28 26.64 28 28 28 C28 29.32 28 30.64 28 32 C12.16 32 -3.68 32 -20 32 C-20 30.68 -20 29.36 -20 28 C-18.68 28 -17.36 28 -16 28 C-16 26.68 -16 25.36 -16 24 C-14.68 24 -13.36 24 -12 24 C-12 22.68 -12 21.36 -12 20 C-10.68 20 -9.36 20 -8 20 C-8 18.68 -8 17.36 -8 16 C-6.68 16 -5.36 16 -4 16 C-4 14.68 -4 13.36 -4 12 C-2.68 12 -1.36 12 0 12 C0 8.04 0 4.08 0 0 Z " fill="#BE1646" transform="translate(36,28)"/>
<path d="M0 0 C7.92 0 15.84 0 24 0 C24 1.32 24 2.64 24 4 C17.4 4 10.8 4 4 4 C4 5.32 4 6.64 4 8 C6.64 8 9.28 8 12 8 C12 11.96 12 15.92 12 20 C10.68 20 9.36 20 8 20 C8 23.96 8 27.92 8 32 C6.68 32 5.36 32 4 32 C4 25.4 4 18.8 4 12 C1.36 12 -1.28 12 -4 12 C-4 9.36 -4 6.72 -4 4 C-2.68 4 -1.36 4 0 4 C0 2.68 0 1.36 0 0 Z " fill="#495057" transform="translate(28,8)"/>
<path d="M0 0 C7.92 0 15.84 0 24 0 C24 2.64 24 5.28 24 8 C21.36 8 18.72 8 16 8 C16 14.6 16 21.2 16 28 C14.68 28 13.36 28 12 28 C12 24.04 12 20.08 12 16 C10.68 16 9.36 16 8 16 C8 12.04 8 8.08 8 4 C5.36 4 2.72 4 0 4 C0 2.68 0 1.36 0 0 Z " fill="#D5CFD2" transform="translate(32,12)"/>
<path d="M0 0 C18.48 0 36.96 0 56 0 C56 1.32 56 2.64 56 4 C37.52 4 19.04 4 0 4 C0 2.68 0 1.36 0 0 Z " fill="#000000" transform="translate(12,64)"/>
<path d="M0 0 C2.64 0 5.28 0 8 0 C8 2.64 8 5.28 8 8 C-6.52 8 -21.04 8 -36 8 C-36 6.68 -36 5.36 -36 4 C-24.12 4 -12.24 4 0 4 C0 2.68 0 1.36 0 0 Z " fill="#D9D3D6" transform="translate(64,56)"/>
<path d="M0 0 C2.64 0 5.28 0 8 0 C8 1.32 8 2.64 8 4 C11.96 4 15.92 4 20 4 C20 5.32 20 6.64 20 8 C13.4 8 6.8 8 0 8 C0 5.36 0 2.72 0 0 Z " fill="#736F72" transform="translate(8,56)"/>
<path d="M0 0 C2.64 0 5.28 0 8 0 C8 2.64 8 5.28 8 8 C2.72 8 -2.56 8 -8 8 C-8 6.68 -8 5.36 -8 4 C-5.36 4 -2.72 4 0 4 C0 2.68 0 1.36 0 0 Z " fill="#FFF9FC" transform="translate(64,56)"/>
<path d="M0 0 C7.92 0 15.84 0 24 0 C24 1.32 24 2.64 24 4 C16.08 4 8.16 4 0 4 C0 2.68 0 1.36 0 0 Z " fill="#000000" transform="translate(28,8)"/>
<path d="M0 0 C1.32 0 2.64 0 4 0 C4 6.6 4 13.2 4 20 C2.68 20 1.36 20 0 20 C0 13.4 0 6.8 0 0 Z " fill="#000000" transform="translate(48,20)"/>
<path d="M0 0 C1.32 0 2.64 0 4 0 C4 6.6 4 13.2 4 20 C2.68 20 1.36 20 0 20 C0 13.4 0 6.8 0 0 Z " fill="#FFF0F3" transform="translate(44,20)"/>
<path d="M0 0 C1.32 0 2.64 0 4 0 C4 6.6 4 13.2 4 20 C2.68 20 1.36 20 0 20 C0 13.4 0 6.8 0 0 Z " fill="#736F72" transform="translate(32,20)"/>
<path d="M0 0 C1.32 0 2.64 0 4 0 C4 6.6 4 13.2 4 20 C2.68 20 1.36 20 0 20 C0 13.4 0 6.8 0 0 Z " fill="#000000" transform="translate(28,20)"/>
<path d="M0 0 C3.96 0 7.92 0 12 0 C12 2.64 12 5.28 12 8 C9.36 8 6.72 8 4 8 C4 6.68 4 5.36 4 4 C2.68 4 1.36 4 0 4 C0 2.68 0 1.36 0 0 Z " fill="#F9EDF0" transform="translate(44,12)"/>
<path d="M0 0 C2.64 0 5.28 0 8 0 C8 2.64 8 5.28 8 8 C5.36 8 2.72 8 0 8 C0 5.36 0 2.72 0 0 Z " fill="#736F72" transform="translate(24,12)"/>
<path d="M0 0 C3.96 0 7.92 0 12 0 C12 1.32 12 2.64 12 4 C8.04 4 4.08 4 0 4 C0 2.68 0 1.36 0 0 Z " fill="#EDE7EA" transform="translate(44,60)"/>
<path d="M0 0 C1.32 0 2.64 0 4 0 C4 3.96 4 7.92 4 12 C2.68 12 1.36 12 0 12 C0 8.04 0 4.08 0 0 Z " fill="#800F2F" transform="translate(36,28)"/>
<path d="M0 0 C1.32 0 2.64 0 4 0 C4 2.64 4 5.28 4 8 C2.68 8 1.36 8 0 8 C0 5.36 0 2.72 0 0 Z " fill="#000000" transform="translate(68,56)"/>
<path d="M0 0 C1.32 0 2.64 0 4 0 C4 2.64 4 5.28 4 8 C2.68 8 1.36 8 0 8 C0 5.36 0 2.72 0 0 Z " fill="#000000" transform="translate(8,56)"/>
<path d="M0 0 C1.32 0 2.64 0 4 0 C4 2.64 4 5.28 4 8 C2.68 8 1.36 8 0 8 C0 5.36 0 2.72 0 0 Z " fill="#000000" transform="translate(52,12)"/>
<path d="M0 0 C1.32 0 2.64 0 4 0 C4 2.64 4 5.28 4 8 C2.68 8 1.36 8 0 8 C0 5.36 0 2.72 0 0 Z " fill="#000000" transform="translate(24,12)"/>
</svg>
